<?xml version="1.0" encoding="utf-8"?>
<!-- Generator: Adobe Illustrator 21.1.0, SVG Export Plug-In . SVG Version: 6.00 Build 0)  -->
<svg version="1.1" id="Calque_1" xmlns="http://www.w3.org/2000/svg" xmlns:xlink="http://www.w3.org/1999/xlink" x="0px" y="0px"
	 viewBox="0 0 100 100" style="enable-background:new 0 0 100 100;" xml:space="preserve">
<style type="text/css">
	.st0{fill:#14213D;}
</style>
<g>
	<path class="st0" d="M85.1,15.9h1.1c0.2,0,0.4,0.2,0.4,0.4v1.1c0,0.2-0.2,0.4-0.4,0.4h-1.1c-0.2,0-0.4-0.2-0.4-0.4v-1.1
		C84.7,16.1,84.9,15.9,85.1,15.9z"/>
	<path class="st0" d="M80.1,15.9h1.1c0.2,0,0.4,0.2,0.4,0.4v1.1c0,0.2-0.2,0.4-0.4,0.4h-1.1c-0.2,0-0.4-0.2-0.4-0.4v-1.1
		C79.7,16.1,79.8,15.9,80.1,15.9z"/>
	<path class="st0" d="M75.1,15.9h1.1c0.2,0,0.4,0.2,0.4,0.4v1.1c0,0.2-0.2,0.4-0.4,0.4h-1.1c-0.2,0-0.4-0.2-0.4-0.4v-1.1
		C74.6,16.1,74.8,15.9,75.1,15.9z"/>
	<path class="st0" d="M15.6,15.9h52c0.2,0,0.4,0.2,0.4,0.4v1.1c0,0.2-0.2,0.4-0.4,0.4h-52c-0.2,0-0.4-0.2-0.4-0.4v-1.1
		C15.2,16.1,15.4,15.9,15.6,15.9z"/>
	<path class="st0" d="M85.8,54.9h-0.8c-0.5,0-0.9-0.4-0.9-0.9V36.3c0-0.5-0.4-0.9-0.9-0.9h-0.1c-0.5,0-0.9,0.4-0.9,0.9V54
		c0,0.5-0.4,0.9-0.9,0.9h-2.4c-0.5,0-0.9-0.4-0.9-0.9V38.6c0-0.5-0.4-0.9-0.9-0.9l0,0c-0.5,0-0.9,0.4-0.9,0.9V54
		c0,0.5-0.4,0.9-0.9,0.9h-2.4c-0.5,0-0.9-0.4-0.9-0.9v-8.7c0-0.5-0.4-0.9-0.9-0.9h-0.1c-0.5,0-0.9,0.4-0.9,0.9V54
		c0,0.5-0.4,0.9-0.9,0.9h-2.4c-0.5,0-0.9-0.4-0.9-0.9V43.6c0-0.5-0.4-0.9-0.9-0.9h-0.1c-0.5,0-0.9,0.4-0.9,0.9V54
		c0,0.5-0.4,0.9-0.9,0.9h-2.2c-0.5,0-0.9-0.4-0.9-0.9V41.1c0-0.5-0.4-0.9-0.9-0.9h-0.1c-0.5,0-0.9,0.4-0.9,0.9V54
		c0,0.5-0.4,0.9-0.9,0.9h-2.4c-0.5,0-0.9-0.4-0.9-0.9v-7.9c0-0.5-0.4-0.9-0.9-0.9h-0.1c-0.5,0-0.9,0.4-0.9,0.9V54
		c0,0.5-0.4,0.9-0.9,0.9h-0.8c-0.5,0-0.9,0.4-0.9,0.9V56c0,0.5,0.4,0.9,0.9,0.9h36.1c0.5,0,0.9-0.4,0.9-0.9v-0.1
		C86.8,55.3,86.4,54.9,85.8,54.9z"/>
	<path class="st0" d="M34.2,35.1h4.2c0.5,0,0.9-0.4,0.9-0.9v-0.1c0-0.5,0.4-0.9,0.9-0.9H41c0.5,0,0.9-0.4,0.9-0.9v-0.1
		c0-0.5-0.4-0.9-0.9-0.9h-0.8c-0.5,0-0.9-0.4-0.9-0.9V30c0-0.5-0.4-0.9-0.9-0.9h-4.2c-0.5,0-0.9,0.4-0.9,0.9v0.1
		c0,0.5-0.4,0.9-0.9,0.9H15.1c-0.5,0-0.9,0.4-0.9,0.9v0.1c0,0.5,0.4,0.9,0.9,0.9h17.3c0.5,0,0.9,0.4,0.9,0.9v0.3
		C33.2,34.7,33.7,35.1,34.2,35.1z M36.1,31h0.3c0.5,0,0.9,0.4,0.9,0.9v0.3c0,0.5-0.4,0.9-0.9,0.9h-0.3c-0.5,0-0.9-0.4-0.9-0.9V32
		C35.2,31.5,35.6,31,36.1,31z"/>
	<path class="st0" d="M20.3,43h4.2c0.5,0,0.9-0.4,0.9-0.9V42c0-0.5,0.4-0.9,0.9-0.9H41c0.5,0,0.9-0.4,0.9-0.9V40
		c0-0.5-0.4-0.9-0.9-0.9H26.4c-0.5,0-0.9-0.4-0.9-0.9v-0.3c0-0.5-0.4-0.9-0.9-0.9h-4.2c-0.5,0-0.9,0.4-0.9,0.9V38
		c0,0.5-0.4,0.9-0.9,0.9h-3.4c-0.5,0-0.9,0.4-0.9,0.9V40c0,0.5,0.4,0.9,0.9,0.9h3.4c0.5,0,0.9,0.4,0.9,0.9v0.3
		C19.4,42.6,19.8,43,20.3,43z M22.3,39h0.3c0.5,0,0.9,0.4,0.9,0.9v0.3c0,0.5-0.4,0.9-0.9,0.9h-0.3c-0.5,0-0.9-0.4-0.9-0.9v-0.3
		C21.4,39.4,21.8,39,22.3,39z"/>
	<path class="st0" d="M29.9,51h4.2c0.5,0,0.9-0.4,0.9-0.9v-0.1c0-0.5,0.4-0.9,0.9-0.9h5c0.5,0,0.9-0.4,0.9-0.9v-0.1
		c0-0.5-0.4-0.9-0.9-0.9h-5c-0.5,0-0.9-0.4-0.9-0.9v-0.3c0-0.5-0.4-0.9-0.9-0.9h-4.2c-0.5,0-0.9,0.4-0.9,0.9v0.1
		c0,0.5-0.4,0.9-0.9,0.9H15.1c-0.5,0-0.9,0.4-0.9,0.9v0.1c0,0.5,0.4,0.9,0.9,0.9h13.1c0.5,0,0.9,0.4,0.9,0.9V50
		C29,50.5,29.4,51,29.9,51z M31.9,46.9h0.3c0.5,0,0.9,0.4,0.9,0.9V48c0,0.5-0.4,0.9-0.9,0.9h-0.3C31.4,49,31,48.6,31,48v-0.3
		C31,47.3,31.4,46.9,31.9,46.9z"/>
	<path class="st0" d="M25.3,56.9v1.1c0,0.5,0.4,0.9,0.9,0.9h4.2c0.5,0,0.9-0.4,0.9-0.9v-0.1c0-0.5,0.4-0.9,0.9-0.9H41
		c0.5,0,0.9-0.4,0.9-0.9v-0.1c0-0.5-0.4-0.9-0.9-0.9h-8.7c-0.5,0-0.9-0.4-0.9-0.9v-0.3c0-0.5-0.4-0.9-0.9-0.9h-4.2
		c-0.5,0-0.9,0.4-0.9,0.9v0.1c0,0.5-0.4,0.9-0.9,0.9h-9.4c-0.5,0-0.9,0.4-0.9,0.9v0.1c0,0.5,0.4,0.9,0.9,0.9h10.3V56.9z M28.2,54.8
		h0.3c0.5,0,0.9,0.4,0.9,0.9V56c0,0.5-0.4,0.9-0.9,0.9h-0.3c-0.5,0-0.9-0.4-0.9-0.9v-0.3C27.3,55.2,27.7,54.8,28.2,54.8z"/>
	<path class="st0" d="M88.7,11.4H12.3c-2.8,0-4.9,2.2-4.9,4.9v50.1c0,2.8,2.2,4.9,4.9,4.9h36.6v7.2H34.4c-1.3,0-2.2,1.1-2.2,2.2v4
		h36.5v-4c0-1.3-1.1-2.2-2.2-2.2H51v-7.2h37.6c2.8,0,4.9-2.2,4.9-4.9V16.3C93.6,13.6,91.4,11.4,88.7,11.4z M12.3,13.4h76.3
		c1.6,0,2.9,1.3,2.9,2.9v4.1H9.4v-4.1C9.4,14.7,10.7,13.4,12.3,13.4z M91.6,22.5v40.2H9.4V22.5H91.6z M66.5,80.4
		c0.1,0,0.3,0.1,0.3,0.3v2H34.2v-2c0-0.1,0.1-0.3,0.3-0.3H66.5z M49,78.4h2v-7.2h-1.9v7.2H49z M88.7,69.4H12.3
		c-1.6,0-2.9-1.3-2.9-2.9v-1.8h82.3v1.7C91.6,68,90.3,69.4,88.7,69.4z"/>
</g>
</svg>
