<?xml version="1.0" encoding="utf-8"?>
<!-- Generator: Adobe Illustrator 21.1.0, SVG Export Plug-In . SVG Version: 6.00 Build 0)  -->
<svg version="1.1" id="Calque_1" xmlns="http://www.w3.org/2000/svg" xmlns:xlink="http://www.w3.org/1999/xlink" x="0px" y="0px"
	 viewBox="0 0 65 65" style="enable-background:new 0 0 65 65;" xml:space="preserve">
<style type="text/css">
	.st0{fill:#14213D;stroke:#14213D;stroke-width:0.5;stroke-linecap:round;stroke-linejoin:round;stroke-miterlimit:10;}
</style>
<g>
	<path class="st0" d="M55.5,10.4h-46c-1.7,0-3,1.3-3,3v41.2h51.9V13.4C58.5,11.7,57.2,10.4,55.5,10.4z M9.6,11.6h46
		c1,0,1.8,0.8,1.8,1.8v3.2H7.8v-3.2C7.8,12.4,8.6,11.6,9.6,11.6z M7.8,53.4V17.8h49.5v35.7H7.8z"/>
	<rect x="48.9" y="13.5" class="st0" width="1.2" height="1.2"/>
	<rect x="51.9" y="13.5" class="st0" width="1.2" height="1.2"/>
	<rect x="45.8" y="13.5" class="st0" width="1.2" height="1.2"/>
	<rect x="11.6" y="13.5" class="st0" width="30.5" height="1.2"/>
	<path class="st0" d="M22.1,42.7h5.9V25.1h-5.9V42.7z M23.3,26.2h3.5v1.4h-1.6v1.2h1.6v1.6h-1v1.2h1v1.6h-1.6v1.3h1.6v1.6h-1v1.2h1
		v1.6h-1.6V40h1.6v1.4h-3.5V26.2z"/>
	<path class="st0" d="M48.1,22.4H16.9v2.1h-3.2V49h37.7V24.6h-3.2V22.4z M42.8,23.6v8.3l-2.5-1.8l-2.5,1.8v-8.3H42.8z M33.2,23.6
		h3.4v10.7l3.7-2.7l3.7,2.7V23.6h3v20.4H33.2V23.6z M18.1,23.6H32v20.4H18.1V23.6z M50.2,25.8v22.1H14.9V25.8h2.1v19.5H32h1.2h15.1
		V25.8H50.2z"/>
</g>
</svg>
