<?xml version="1.0" encoding="utf-8"?>
<!-- Generator: Adobe Illustrator 21.1.0, SVG Export Plug-In . SVG Version: 6.00 Build 0)  -->
<svg version="1.1" id="Calque_1" xmlns="http://www.w3.org/2000/svg" xmlns:xlink="http://www.w3.org/1999/xlink" x="0px" y="0px"
	 viewBox="0 0 60 60" style="enable-background:new 0 0 60 60;" xml:space="preserve">
<style type="text/css">
	.st0{fill:#14213D;}
</style>
<path class="st0" d="M55.5,13.4c0-1.6-1.3-2.9-2.9-2.9H7.4c-1.6,0-2.9,1.3-2.9,2.9v32.8H1v4.4h6.4h45.2h6.6v-4.4h-3.6V13.4z M6,13.4
	c0-0.8,0.7-1.5,1.5-1.5h45.2c0.8,0,1.5,0.7,1.5,1.5v32.8H6V13.4z M57.7,49.1h-5.1H7.4h-5v-1.5h55.2V49.1z"/>
<path class="st0" d="M8.2,42.5h43.7V14.8H8.2V42.5z M9.6,16.3h40.8v24.8H9.6V16.3z"/>
<rect x="29.3" y="12.6" class="st0" width="1.5" height="1.5"/>
<rect x="11" y="18.8" transform="matrix(0.7071 -0.7071 0.7071 0.7071 -9.8914 14.4849)" class="st0" width="3.1" height="0.7"/>
<rect x="10.2" y="20.6" transform="matrix(0.7071 -0.7071 0.7071 0.7071 -10.6243 16.2316)" class="st0" width="8.2" height="0.7"/>
<rect x="9.4" y="22.3" transform="matrix(0.7071 -0.7071 0.7071 0.7071 -11.3402 18.0086)" class="st0" width="13.4" height="0.7"/>
<rect x="25.7" y="44" class="st0" width="8.7" height="0.7"/>
</svg>
