<?xml version="1.0" encoding="utf-8"?>
<!-- Generator: Adobe Illustrator 21.1.0, SVG Export Plug-In . SVG Version: 6.00 Build 0)  -->
<svg version="1.1" id="Calque_1" xmlns="http://www.w3.org/2000/svg" xmlns:xlink="http://www.w3.org/1999/xlink" x="0px" y="0px"
	 viewBox="0 0 60 60" style="enable-background:new 0 0 60 60;" xml:space="preserve">
<style type="text/css">
	.st0{fill:#14213D;}
</style>
<g>
	<path class="st0" d="M37.7,12.8H22.3c-2,0-3.7,1.6-3.7,3.7v27.1c0,2,1.6,3.7,3.7,3.7h15.4c2,0,3.7-1.6,3.7-3.7V16.4
		C41.4,14.4,39.7,12.8,37.7,12.8z M39.4,43.6c0,1-0.8,1.8-1.8,1.8H22.3c-1,0-1.8-0.8-1.8-1.8v-2.3h18.9L39.4,43.6L39.4,43.6z
		 M39.4,39.4H20.6v-7.3h1.8c0.5,0,1-0.4,1-1s-0.4-1-1-1h-1.8v-1.7h3.6c0.5,0,1-0.4,1-1c0-0.5-0.4-1-1-1h-3.6v-7.3h18.9L39.4,39.4
		L39.4,39.4z M39.4,17.3H20.6v-0.9c0-1,0.8-1.8,1.8-1.8h15.4c1,0,1.8,0.8,1.8,1.8V17.3z"/>
	<path class="st0" d="M28.5,44.2h3.1c0.5,0,1-0.4,1-1s-0.4-1-1-1h-3.1c-0.5,0-1,0.4-1,1C27.5,43.8,27.9,44.2,28.5,44.2z"/>
</g>
</svg>
