<?xml version="1.0" encoding="utf-8"?>
<!-- Generator: Adobe Illustrator 21.1.0, SVG Export Plug-In . SVG Version: 6.00 Build 0)  -->
<svg version="1.1" id="Calque_1" xmlns="http://www.w3.org/2000/svg" xmlns:xlink="http://www.w3.org/1999/xlink" x="0px" y="0px"
	 viewBox="0 0 100 100" style="enable-background:new 0 0 100 100;" xml:space="preserve">
<style type="text/css">
	.st0{fill:#FFFFFF;}
</style>
<path class="st0" d="M83.7,59l-3.4-19.9c0.9-0.6,1.4-1.6,1.4-2.8c0-1.9-1.6-3.5-3.5-3.5c-0.5,0-0.9,0.1-1.3,0.3L66.7,22.7
	c0.8-0.8,1.4-1.8,1.4-3.1c0-2.3-1.8-4.1-4.1-4.1c-1.4,0-2.7,0.7-3.4,1.8l-16.2-3.5c-0.3-1.3-1.5-2.4-2.9-2.4c-1.6,0-2.9,1.3-2.9,2.9
	c0,0.5,0.1,1,0.4,1.4L26.2,29.1c-0.2,0-0.4-0.1-0.6-0.1c-2,0-3.7,1.7-3.7,3.7c0,1.4,0.7,2.5,1.9,3.2l-6.7,17.2
	c-0.2,0-0.3-0.1-0.5-0.1c-2,0-3.7,1.7-3.7,3.7c0,1.5,0.9,2.9,2.3,3.4L14.9,78c-1.4,0.5-2.4,1.9-2.4,3.4c0,2,1.7,3.7,3.7,3.7
	c1.9,0,3.4-1.4,3.6-3.2l30.6-2c0.5,1.1,1.7,1.9,3,1.9c0.8,0,1.5-0.3,2.1-0.7l15.2,5.1c0.5,0.9,1.5,1.5,2.5,1.5
	c1.6,0,2.9-1.3,2.9-2.9c0-0.2,0-0.4-0.1-0.6l7.5-18.6c1.6-0.2,2.9-1.6,2.9-3.3C86.5,60.6,85.2,59.3,83.7,59z M51.1,41.6l12,15.4
	c-0.4,0.4-0.6,0.9-0.8,1.5l-23.1-1.6c-0.1-0.3-0.3-0.6-0.6-0.9l8.7-13.9c0.5,0.2,0.9,0.2,1.4,0.2C49.7,42.3,50.5,42.1,51.1,41.6z
	 M52.7,40.1c0.2-0.4,0.4-0.9,0.5-1.3l21.7-1.3c0.1,0.4,0.4,0.8,0.7,1.2l-8.9,17c-0.1,0-0.2,0-0.4,0c-0.5,0-1.1,0.1-1.5,0.3
	L52.7,40.1z M61.7,23c0.7,0.5,1.5,0.8,2.4,0.8c0.3,0,0.6,0,0.8-0.1l10.4,10.8c-0.2,0.3-0.4,0.7-0.4,1.1l-21.6,1.3
	c-0.1-0.6-0.4-1.2-0.7-1.7L61.7,23z M44.1,15.9L60,19.3c0,0.1,0,0.2,0,0.3c0,0.6,0.1,1.2,0.4,1.7l-9.4,12.5
	c-0.5-0.3-1.1-0.5-1.7-0.5c-0.2,0-0.4,0-0.6,0c-0.1,0-0.3,0-0.4,0l-5-16.4C43.5,16.7,43.8,16.3,44.1,15.9z M40.7,17.3
	c0.1,0,0.3,0.1,0.4,0.1L46.2,34c-0.8,0.5-1.4,1.4-1.6,2.3c0,0.1,0,0.1-0.1,0.2l0,0l-15.2-4.3c-0.1-0.9-0.6-1.6-1.2-2.1L40.7,17.3z
	 M29,34.3l15.4,4.3c0.2,1,0.7,1.9,1.4,2.5l-8.6,13.8c-0.4-0.2-0.8-0.2-1.3-0.2c-0.1,0-0.2,0-0.3,0l-7.7-19
	C28.3,35.3,28.7,34.8,29,34.3z M25.6,36.5c0.2,0,0.3,0,0.5,0l7.7,18.9c-0.7,0.5-1.2,1.2-1.5,2l-12.1-1.2c-0.2-0.9-0.7-1.7-1.3-2.2
	L25.6,36.5z M18.1,78.3c-0.3-0.2-0.7-0.3-1-0.4l0.2-17.5c1.3-0.2,2.3-1.2,2.8-2.4l12.2,1.3c0.1,0.4,0.3,0.8,0.5,1.2L18.1,78.3z
	 M50.1,77.9l-30.6,2c0-0.1-0.1-0.1-0.1-0.2l14.9-18c0.5,0.2,1,0.4,1.6,0.4c0.3,0,0.7-0.1,1-0.1l13.8,14.8
	C50.4,77.1,50.2,77.4,50.1,77.9z M54.8,75.5c-0.4-0.2-0.9-0.3-1.4-0.3c-0.4,0-0.8,0.1-1.2,0.2L38.6,60.7c0.4-0.5,0.7-1,0.9-1.7
	l22.8,1.6c0.1,0.5,0.3,1,0.6,1.4L54.8,75.5z M70.4,84l-13.7-4.6c0.1-0.3,0.1-0.5,0.1-0.8c0-0.6-0.2-1.2-0.4-1.6l8-13.5
	c0.6,0.3,1.3,0.5,2,0.5c0,0,0.1,0,0.1,0l5.3,18.4C71.1,82.6,70.6,83.2,70.4,84z M74.6,82.3c-0.2-0.1-0.5-0.2-0.7-0.3l-5.4-18.7
	c1-0.6,1.7-1.5,1.9-2.6l9.6,3c0.3,0.7,0.8,1.3,1.5,1.6L74.6,82.3z M79.8,61.5l-9.5-3c-0.3-0.9-0.8-1.8-1.6-2.3l8.6-16.6
	c-1.1-0.4,0.6,0.1,0.9,0.1c0,0,0.1,0,0.1,0l3.3,19.5C80.7,59.8,80.1,60.6,79.8,61.5z"/>
</svg>
