<?xml version="1.0" encoding="utf-8"?>
<!-- Generator: Adobe Illustrator 21.1.0, SVG Export Plug-In . SVG Version: 6.00 Build 0)  -->
<svg version="1.1" id="Calque_1" xmlns="http://www.w3.org/2000/svg" xmlns:xlink="http://www.w3.org/1999/xlink" x="0px" y="0px"
	 viewBox="0 0 152 100" style="enable-background:new 0 0 152 100;" xml:space="preserve">
<style type="text/css">
	.st0{fill:#FFFFFF;}
</style>
<path class="st0" d="M131.4,32.3c0-1.7-0.5-3.4-1.6-4.8L121,16.3c-1.5-1.9-3.7-2.8-5.9-2.8c-1.3,0-2.7,0.3-3.9,1.1l-8.6,5.3
	c-0.9,0.6-2.4,1-3.9,1c-1.2,0-2.3-0.2-3-0.6l-8.4-4.1c-1.4-0.7-2.9-0.9-4.4-0.9c-2.2,0-4.4,0.5-6.2,1.8l-1,0.7c-0.8-0.4-2-1-3.3-1.7
	C70.9,15.3,68.9,15,67,15c-1.7,0-3.5,0.3-5,0.9l-5.7,2.4c-0.9,0.4-2.4,0.7-3.9,0.7c-1.5,0-2.9-0.3-3.9-0.7l-5.7-2.4
	c-1-0.4-2.2-0.6-3.3-0.6c-1.3,0-2.5,0.3-3.7,0.7c-1.2,0.5-2.3,1.2-3.1,2.2L22.3,29.8c-1.2,1.3-1.7,2.9-1.7,4.5
	c0,1.9,0.8,3.8,2.4,5.1l9.7,8.3l-4.6,4.8c-1.3,1.3-1.9,3-1.9,4.7c0,1.8,0.7,3.6,2.1,5l0.9,0.9c0.9,0.8,1.9,1.4,3,1.6
	c-0.6,1-0.9,2.1-0.9,3.3c0,1.8,0.7,3.6,2.1,5l0,0l0.9,0.9c1.3,1.3,3.1,1.9,4.8,1.9c0.9,0,1.8-0.2,2.7-0.5c0.3,1.2,0.9,2.4,1.9,3.3
	l0.9,0.9c1.3,1.3,3.1,1.9,4.8,1.9c1.3,0,2.7-0.4,3.8-1.2c0.3,1.1,0.9,2.1,1.8,2.9l0.9,0.9c1.3,1.3,3.1,1.9,4.8,1.9
	c1.8,0,3.6-0.7,5-2.1l4.1-4.2l5.5,5.1c1.3,1.2,3,1.8,4.7,1.8c1.8,0,3.7-0.7,5.1-2.2l0.9-0.9c0.8-0.8,1.3-1.8,1.5-2.8l2.1,2
	c1.3,1.2,3,1.8,4.7,1.8c1.8,0,3.7-0.7,5.1-2.2l0.9-0.9c1-1.1,1.6-2.4,1.8-3.8c0.6,0.1,1.1,0.2,1.7,0.2c1.8,0,3.7-0.7,5.1-2.2
	l0.9-0.9c1.2-1.3,1.8-3,1.8-4.7c0-0.5-0.1-1-0.2-1.5c1.5-0.2,3-0.9,4.1-2.1l0.9-0.9c1.2-1.3,1.8-3,1.8-4.7c0-1.8-0.7-3.7-2.2-5
	l-1.6-1.5l14.9-16.5C130.8,36.1,131.4,34.2,131.4,32.3z M30.9,59.5c-0.6-0.6-1-1.4-1-2.3c0-0.8,0.3-1.5,0.9-2.2l9.4-9.8
	c0.6-0.6,1.4-1,2.3-1c0.8,0,1.6,0.3,2.2,0.9l0.9,0.9c0,0,1,1.4,1,2.3c0,0.6-0.2,1.2-0.6,1.8c0,0-10.2,10.6-10.2,10.6
	c-0.5,0.4-1.2,0.6-1.8,0.6c-0.8,0-1.6-0.3-2.2-0.9L30.9,59.5z M39.3,72c-0.8,0-1.6-0.3-2.2-0.9l-0.9-0.9l0,0c-0.6-0.6-1-1.4-1-2.3
	c0-0.8,0.3-1.5,0.9-2.2c0,0,12.6-13.1,12.7-13.2c0.6-0.6,1.4-0.9,2.2-0.9c0.8,0,1.6,0.3,2.2,0.9l0.9,0.9l0,0c0.6,0.6,1,1.4,1,2.3
	c0,0.8-0.3,1.6-0.9,2.2L41.6,71.1C41,71.7,40.1,72,39.3,72z M49.6,77.6c-0.8,0-1.6-0.3-2.2-0.9l-0.9-0.9c-0.6-0.6-1-1.4-1-2.3
	c0-0.7,0.2-1.4,0.7-1.9l8.8-9.1c0.6-0.5,1.3-0.8,2.1-0.8c0.8,0,1.6,0.3,2.2,0.9l0.9,0.9l0,0c0.6,0.6,1,1.4,1,2.3
	c0,0.8-0.3,1.6-0.9,2.2l-8.4,8.8C51.3,77.3,50.4,77.6,49.6,77.6z M63.2,81.2c-0.6,0.6-1.4,1-2.3,1c-0.8,0-1.6-0.3-2.2-0.9l-0.9-0.9
	c-0.6-0.6-1-1.4-1-2.3c0-0.8,0.3-1.6,0.9-2.2l5.3-5.5c0.6-0.6,1.4-1,2.3-1c0.8,0,1.6,0.3,2.2,0.9l0.9,0.9l0,0c0.6,0.6,1,1.4,1,2.3
	c0,0.8-0.3,1.6-0.9,2.2L63.2,81.2z M113.8,62.8l-0.9,0.9c-0.6,0.7-1.4,1-2.3,1c-0.8,0-1.5-0.3-2.1-0.8L93.6,50.2l-2.6,2.7l15.9,14.7
	c0.7,0.6,1,1.4,1,2.3c0,0.8-0.3,1.5-0.8,2.1l-0.9,0.9c-0.6,0.7-1.4,1-2.3,1c-0.8,0-1.5-0.3-2.1-0.8L87,59.4l-2.6,2.7l13.2,12.2
	c0.6,0.6,1,1.4,1,2.2c0,0.8-0.3,1.5-0.8,2.1l-0.9,0.9c-0.6,0.7-1.4,1-2.3,1c-0.8,0-1.5-0.3-2.1-0.8L79.3,67.7h0l0,0l-2.6,2.7l0,0
	l0,0l0,0l6.6,6.1c0.6,0.6,0.9,1.4,0.9,2.2c0,0.8-0.3,1.5-0.8,2.1l-0.9,0.9c-0.6,0.7-1.4,1-2.3,1c-0.8,0-1.5-0.3-2.1-0.8l-5.7-5.3
	c0.5-1,0.8-2,0.8-3.1c0-1.8-0.7-3.6-2.1-5L70,67.7c-1.3-1.3-3.1-1.9-4.8-1.9c-0.1,0-0.3,0-0.4,0c0,0,0-0.1,0-0.1c0-1.8-2.1-5-2.1-5
	l-0.9-0.9c-1-0.9-2.2-1.5-3.5-1.8c0.3-0.7,0.4-1.5,0.4-2.3c0-1.8-0.7-3.6-2.1-5l-0.9-0.9c-1.3-1.3-3.1-1.9-4.8-1.9
	c-0.2,0-0.4,0-0.6,0.1c-0.1-1.7-0.8-3.5-2.1-4.8v0l-0.9-0.9c-1.3-1.3-3.1-1.9-4.8-1.9c-1.8,0-3.6,0.7-5,2.1L35.3,45l-9.9-8.4
	c-0.7-0.6-1.1-1.4-1.1-2.3c0-0.7,0.2-1.4,0.8-2l10.4-11.6c0.4-0.5,1-0.9,1.7-1.2c0.7-0.3,1.5-0.5,2.3-0.4c0.7,0,1.3,0.1,1.8,0.3
	l5.7,2.4c1.6,0.7,3.5,1,5.4,1c1.9,0,3.7-0.3,5.4-1l5.7-2.4c0.9-0.4,2.2-0.6,3.5-0.6c1.5,0,2.9,0.3,3.8,0.7c0.5,0.3,1,0.5,1.5,0.8
	l-5.8,4.1c-1.9,1.3-2.9,3.4-2.9,5.5c0,1.4,0.4,2.8,1.3,4l0,0l0.8,1c1.5,1.9,3.7,2.9,6,2.9c1.3,0,2.6-0.3,3.8-1l3.5-2.1
	c0.7-0.4,1.8-0.7,2.9-0.7c1.3,0,2.6,0.4,3.4,1l9.6,6.9c2.1,1.5,5.6,4.4,7.6,6.2l11.1,10.3c0.7,0.6,1,1.4,1,2.3
	C114.6,61.4,114.3,62.2,113.8,62.8z M126.6,35.1l-14.8,16.4l-6.7-6.2c-2.1-1.9-5.6-4.8-7.9-6.5l-9.6-6.9c-1.6-1.2-3.6-1.7-5.6-1.7
	c-1.7,0-3.4,0.4-4.8,1.2l-3.5,2.1c-0.5,0.3-1.2,0.5-1.8,0.5c-1.2,0-2.3-0.5-3-1.4l-0.8-1l0,0c-0.4-0.5-0.6-1.2-0.6-1.8
	c0-0.9,0.4-1.9,1.3-2.5L79,20.1c0.9-0.6,2.5-1.1,4-1.1c1,0,2,0.2,2.7,0.5l8.4,4.1c1.4,0.7,3,1,4.7,1c2.1,0,4.2-0.5,5.9-1.5l8.6-5.3
	c0.5-0.3,1.2-0.5,1.9-0.5c1.2,0,2.3,0.5,3,1.4l8.8,11.2c0.5,0.6,0.8,1.6,0.8,2.5C127.6,33.4,127.2,34.4,126.6,35.1z"/>
</svg>
