<?xml version="1.0" encoding="utf-8"?>
<!-- Generator: Adobe Illustrator 21.1.0, SVG Export Plug-In . SVG Version: 6.00 Build 0)  -->
<svg version="1.1" id="Calque_1" xmlns="http://www.w3.org/2000/svg" xmlns:xlink="http://www.w3.org/1999/xlink" x="0px" y="0px"
	 viewBox="0 0 86 84" style="enable-background:new 0 0 86 84;" xml:space="preserve">
<style type="text/css">
	.st0{fill:#FFFFFF;}
</style>
<g>
	<path class="st0" d="M62.2,16c-4.1,0-7.4,3.3-7.4,7.4s3.3,7.4,7.4,7.4s7.4-3.3,7.4-7.4S66.3,16,62.2,16z M62.2,25.9
		c-1.4,0-2.5-1.1-2.5-2.5c0-1.4,1.1-2.5,2.5-2.5c1.4,0,2.5,1.1,2.5,2.5C64.7,24.8,63.6,25.9,62.2,25.9z"/>
	<path class="st0" d="M62.2,34.6c-1.2,0-2.4,0.3-3.3,0.8l-9-9c0.4-0.9,0.6-1.9,0.6-2.9c0-4.1-3.3-7.4-7.4-7.4s-7.4,3.3-7.4,7.4
		s3.3,7.4,7.4,7.4c1.2,0,2.4-0.3,3.5-0.9l9,9c-0.4,0.9-0.7,1.9-0.7,3c0,4.1,3.3,7.4,7.4,7.4s7.4-3.3,7.4-7.4S66.3,34.6,62.2,34.6z
		 M40.5,23.4c0-1.4,1.1-2.5,2.5-2.5s2.5,1.1,2.5,2.5c0,1.4-1.1,2.5-2.5,2.5S40.5,24.8,40.5,23.4z M62.2,44.5c-1.4,0-2.5-1.1-2.5-2.5
		s1.1-2.5,2.5-2.5c1.4,0,2.5,1.1,2.5,2.5S63.6,44.5,62.2,44.5z"/>
	<path class="st0" d="M50.4,42c0-4.1-3.3-7.4-7.4-7.4s-7.4,3.3-7.4,7.4s3.3,7.4,7.4,7.4S50.4,46.1,50.4,42z M40.5,42
		c0-1.4,1.1-2.5,2.5-2.5s2.5,1.1,2.5,2.5s-1.1,2.5-2.5,2.5S40.5,43.4,40.5,42z"/>
	<path class="st0" d="M23.8,68c4.1,0,7.4-3.3,7.4-7.4s-3.3-7.4-7.4-7.4s-7.4,3.3-7.4,7.4S19.7,68,23.8,68z M23.8,58.1
		c1.4,0,2.5,1.1,2.5,2.5c0,1.4-1.1,2.5-2.5,2.5c-1.4,0-2.5-1.1-2.5-2.5C21.3,59.2,22.4,58.1,23.8,58.1z"/>
	<path class="st0" d="M62.2,53.1c-3.2,0-5.9,2-7,5H50c-1.1-2.9-3.8-5-7-5c-1.9,0-3.5,0.7-4.8,1.7l-8.5-8.4c0.9-1.2,1.5-2.8,1.5-4.5
		c0-3.2-2-5.9-5-7v-4.6c2.9-1.1,5-3.8,5-7c0-4.1-3.3-7.4-7.4-7.4s-7.4,3.3-7.4,7.4c0,3.2,2,5.9,5,7V35c-2.9,1.1-5,3.8-5,7
		c0,4.1,3.3,7.4,7.4,7.4c0.6,0,1.2-0.1,1.7-0.2l10.2,10.2c-0.1,0.4-0.1,0.7-0.1,1.2c0,4.1,3.3,7.4,7.4,7.4c3.2,0,5.9-2,7-5h5.2
		c1.1,2.9,3.8,5,7,5c4.1,0,7.4-3.3,7.4-7.4S66.3,53.1,62.2,53.1z M23.8,21c1.4,0,2.5,1.1,2.5,2.5c0,1.4-1.1,2.5-2.5,2.5
		c-1.4,0-2.5-1.1-2.5-2.5C21.3,22.1,22.4,21,23.8,21z M21.3,42c0-1.4,1.1-2.5,2.5-2.5c1.4,0,2.5,1.1,2.5,2.5s-1.1,2.5-2.5,2.5
		C22.4,44.5,21.3,43.4,21.3,42z M43,63c-1.4,0-2.5-1.1-2.5-2.5c0-1.4,1.1-2.5,2.5-2.5s2.5,1.1,2.5,2.5C45.5,61.9,44.4,63,43,63z
		 M62.2,63c-1.4,0-2.5-1.1-2.5-2.5c0-1.4,1.1-2.5,2.5-2.5c1.4,0,2.5,1.1,2.5,2.5C64.7,61.9,63.6,63,62.2,63z"/>
</g>
</svg>
