<?xml version="1.0" encoding="utf-8"?>
<!-- Generator: Adobe Illustrator 21.1.0, SVG Export Plug-In . SVG Version: 6.00 Build 0)  -->
<svg version="1.1" id="Calque_1" xmlns="http://www.w3.org/2000/svg" xmlns:xlink="http://www.w3.org/1999/xlink" x="0px" y="0px"
	 viewBox="0 0 86 84" style="enable-background:new 0 0 86 84;" xml:space="preserve">
<style type="text/css">
	.st0{fill:#14213D;stroke:#FFFFFF;stroke-width:2;stroke-miterlimit:10;}
</style>
<g>
	<path class="st0" d="M38.3,10.8c-2.8,2.8-2.8,7.4,0,10.2c2.8,2.8,7.4,2.8,10.2,0c2.8-2.8,2.8-7.4,0-10.2C45.7,8,41.1,8,38.3,10.8z
		 M45.1,17.7c-0.9,0.9-2.5,0.9-3.4,0c-0.9-0.9-0.9-2.5,0-3.4c0.9-0.9,2.5-0.9,3.4,0S46.1,16.7,45.1,17.7z"/>
	<path class="st0" d="M51.1,23.6c-0.8,0.8-1.4,1.8-1.7,2.9H36.9c-0.4-0.9-0.9-1.7-1.6-2.4c-2.8-2.8-7.4-2.8-10.2,0s-2.8,7.4,0,10.2
		s7.4,2.8,10.2,0c0.9-0.9,1.5-1.9,1.8-3h12.4c0.3,0.9,0.9,1.8,1.6,2.6c2.8,2.8,7.4,2.8,10.2,0c2.8-2.8,2.8-7.4,0-10.2
		C58.5,20.8,53.9,20.8,51.1,23.6z M28.5,30.9c-0.9-0.9-0.9-2.5,0-3.4s2.5-0.9,3.4,0c0.9,0.9,0.9,2.5,0,3.4
		C31,31.8,29.4,31.8,28.5,30.9z M57.9,30.5c-0.9,0.9-2.5,0.9-3.4,0s-0.9-2.5,0-3.4c0.9-0.9,2.5-0.9,3.4,0S58.9,29.5,57.9,30.5z"/>
	<path class="st0" d="M48.1,36.9c-2.8-2.8-7.4-2.8-10.2,0c-2.8,2.8-2.8,7.4,0,10.2c2.8,2.8,7.4,2.8,10.2,0
		C50.9,44.3,50.9,39.7,48.1,36.9z M41.3,43.7c-0.9-0.9-0.9-2.5,0-3.4s2.5-0.9,3.4,0s0.9,2.5,0,3.4S42.2,44.6,41.3,43.7z"/>
	<path class="st0" d="M47.7,73.2c2.8-2.8,2.8-7.4,0-10.2c-2.8-2.8-7.4-2.8-10.2,0c-2.8,2.8-2.8,7.4,0,10.2
		C40.3,76,44.9,76,47.7,73.2z M40.9,66.3c0.9-0.9,2.5-0.9,3.4,0c0.9,0.9,0.9,2.5,0,3.4s-2.5,0.9-3.4,0
		C39.9,68.8,39.9,67.3,40.9,66.3z"/>
	<path class="st0" d="M63.9,36.5c-2.2,2.2-2.7,5.5-1.4,8.2l-3.6,3.6c-2.7-1.3-6-0.8-8.2,1.4c-1.3,1.3-2,2.9-2.1,4.5l-11.7,0
		c-0.2-1.5-0.9-2.9-2-4.1c-2.2-2.2-5.5-2.7-8.2-1.4l-3.2-3.2c1.3-2.7,0.8-6-1.4-8.2c-2.8-2.8-7.4-2.8-10.2,0
		c-2.8,2.8-2.8,7.4,0,10.2c2.2,2.2,5.5,2.7,8.2,1.4l3.2,3.2c-1.3,2.7-0.8,6,1.4,8.2c2.8,2.8,7.4,2.8,10.2,0c0.4-0.4,0.8-0.9,1.1-1.3
		h14c0.2,0.3,0.4,0.6,0.7,0.9c2.8,2.8,7.4,2.8,10.2,0c2.2-2.2,2.7-5.5,1.4-8.2l3.6-3.6c2.7,1.3,6,0.8,8.2-1.4
		c2.8-2.8,2.8-7.4,0-10.2C71.3,33.6,66.7,33.6,63.9,36.5z M15.3,40.7c0.9-0.9,2.5-0.9,3.4,0c0.9,0.9,0.9,2.5,0,3.4
		c-0.9,0.9-2.5,0.9-3.4,0C14.3,43.2,14.3,41.7,15.3,40.7z M28.1,56.9c-0.9-0.9-0.9-2.5,0-3.4s2.5-0.9,3.4,0c0.9,0.9,0.9,2.5,0,3.4
		C30.5,57.9,29,57.9,28.1,56.9z M57.5,56.5c-0.9,0.9-2.5,0.9-3.4,0c-0.9-0.9-0.9-2.5,0-3.4c0.9-0.9,2.5-0.9,3.4,0
		C58.4,54,58.4,55.6,57.5,56.5z M70.7,43.3c-0.9,0.9-2.5,0.9-3.4,0c-0.9-0.9-0.9-2.5,0-3.4c0.9-0.9,2.5-0.9,3.4,0
		C71.7,40.8,71.7,42.3,70.7,43.3z"/>
</g>
</svg>
