<?xml version="1.0" encoding="utf-8"?>
<!-- Generator: Adobe Illustrator 21.1.0, SVG Export Plug-In . SVG Version: 6.00 Build 0)  -->
<svg version="1.1" id="Calque_1" xmlns="http://www.w3.org/2000/svg" xmlns:xlink="http://www.w3.org/1999/xlink" x="0px" y="0px"
	 viewBox="0 0 86 84" style="enable-background:new 0 0 86 84;" xml:space="preserve">
<style type="text/css">
	.st0{fill:#FFFFFF;}
</style>
<path class="st0" d="M39,20.4c1.2,1.2,2.7,1.8,4.4,1.8c1.7,0,3.2-0.6,4.4-1.8c1.2-1.2,1.8-2.7,1.8-4.4s-0.6-3.2-1.8-4.4
	c-2.4-2.4-6.4-2.4-8.8,0C36.6,14,36.6,17.9,39,20.4z M41,13.6c1.3-1.3,3.5-1.3,4.8,0c0.6,0.6,1,1.5,1,2.4c0,0.9-0.4,1.8-1,2.4
	c-0.6,0.6-1.5,1-2.4,1c-0.9,0-1.8-0.4-2.4-1c-0.6-0.6-1-1.5-1-2.4C40,15.1,40.4,14.2,41,13.6z"/>
<path class="st0" d="M50.1,27.5H36.2L36,26.9c-0.4-0.9-0.8-1.6-1.4-2.1c-1.2-1.2-2.8-1.8-4.4-1.8c-1.6,0-3.2,0.6-4.4,1.8
	c-2.4,2.4-2.4,6.4,0,8.8c2.4,2.4,6.4,2.4,8.8,0c0.7-0.7,1.2-1.6,1.5-2.6l0.2-0.7h13.8l0.2,0.7c0.3,0.9,0.8,1.6,1.4,2.2
	c1.2,1.2,2.7,1.8,4.4,1.8s3.2-0.6,4.4-1.8c1.2-1.2,1.8-2.7,1.8-4.4s-0.6-3.2-1.8-4.4c-2.4-2.4-6.4-2.4-8.8,0v0
	c-0.7,0.7-1.2,1.5-1.5,2.5L50.1,27.5z M32.6,31.6c-0.7,0.7-1.5,1-2.4,1s-1.7-0.3-2.4-1c-1.3-1.3-1.3-3.5,0-4.8s3.5-1.3,4.8,0
	S33.9,30.3,32.6,31.6z M53.8,26.4c1.3-1.3,3.5-1.3,4.8,0c0.6,0.6,1,1.5,1,2.4c0,0.9-0.4,1.8-1,2.4c0,0,0,0,0,0c-0.6,0.6-1.5,1-2.4,1
	s-1.8-0.4-2.4-1c-0.6-0.6-1-1.5-1-2.4S53.2,27,53.8,26.4z"/>
<path class="st0" d="M47.4,37.6c-1.2-1.2-2.7-1.8-4.4-1.8c-1.7,0-3.2,0.6-4.4,1.8c-2.4,2.4-2.4,6.4,0,8.8c1.2,1.2,2.7,1.8,4.4,1.8
	c1.7,0,3.2-0.6,4.4-1.8c1.2-1.2,1.8-2.7,1.8-4.4S48.6,38.8,47.4,37.6z M45.4,44.4c-0.7,0.7-1.5,1-2.4,1c-0.9,0-1.7-0.3-2.4-1
	c-1.3-1.3-1.3-3.5,0-4.8s3.5-1.3,4.8,0c0.6,0.6,1,1.5,1,2.4S46.1,43.8,45.4,44.4z"/>
<path class="st0" d="M47,63.6c-1.2-1.2-2.7-1.8-4.4-1.8c-1.7,0-3.2,0.6-4.4,1.8c-1.2,1.2-1.8,2.7-1.8,4.4s0.6,3.2,1.8,4.4
	c1.2,1.2,2.7,1.8,4.4,1.8c1.7,0,3.2-0.6,4.4-1.8s1.8-2.7,1.8-4.4S48.2,64.8,47,63.6z M45,70.4c-0.7,0.7-1.5,1-2.4,1s-1.7-0.3-2.4-1
	c-0.6-0.6-1-1.5-1-2.4s0.4-1.8,1-2.4c0,0,0,0,0,0c1.3-1.3,3.5-1.3,4.8,0c0.6,0.6,1,1.5,1,2.4S45.6,69.8,45,70.4z"/>
<path class="st0" d="M73.4,37.2c-1.2-1.2-2.7-1.8-4.4-1.8s-3.2,0.6-4.4,1.8c-1.9,1.9-2.4,4.7-1.2,7.1l0.3,0.6l-4.6,4.6l-0.6-0.3
	c-2.4-1.1-5.2-0.7-7.1,1.2c-1,1-1.7,2.4-1.8,3.9l-0.1,0.9l-13.4,0l-0.1-0.9c-0.2-1.3-0.8-2.6-1.8-3.5c-1.9-1.9-4.7-2.4-7.1-1.2
	l-0.6,0.3l-4.2-4.2l0.3-0.6c1.1-2.4,0.7-5.2-1.2-7.1c-2.4-2.4-6.4-2.4-8.8,0c-2.4,2.4-2.4,6.4,0,8.8c1.9,1.9,4.7,2.4,7.1,1.2
	l0.6-0.3l4.2,4.2l-0.3,0.6c-1.1,2.4-0.7,5.2,1.2,7.1c1.2,1.2,2.7,1.8,4.4,1.8s3.2-0.6,4.4-1.8c0.4-0.4,0.7-0.7,0.9-1.2l0.3-0.5h15.1
	l0.3,0.4c0.2,0.3,0.4,0.5,0.6,0.8c1.2,1.2,2.7,1.8,4.4,1.8s3.2-0.6,4.4-1.8c1.9-1.9,2.4-4.7,1.2-7.1l-0.3-0.6l4.6-4.6l0.6,0.3
	c2.4,1.1,5.2,0.7,7.1-1.2c1.2-1.2,1.8-2.7,1.8-4.4S74.6,38.3,73.4,37.2z M19.4,44.8c-0.6,0.6-1.5,1-2.4,1c-0.9,0-1.8-0.4-2.4-1
	c-1.3-1.3-1.3-3.5,0-4.8c1.3-1.3,3.5-1.3,4.8,0C20.7,41.3,20.7,43.5,19.4,44.8z M32.2,57.6c-0.6,0.6-1.5,1-2.4,1
	c-0.9,0-1.8-0.4-2.4-1c0,0,0,0,0,0c-0.6-0.6-1-1.5-1-2.4c0-0.9,0.4-1.8,1-2.4c1.3-1.3,3.5-1.3,4.8,0c0.6,0.6,1,1.5,1,2.4
	C33.2,56.1,32.8,57,32.2,57.6z M58.2,57.2c-0.6,0.6-1.5,1-2.4,1s-1.8-0.4-2.4-1c-0.6-0.6-1-1.5-1-2.4c0-0.9,0.4-1.8,1-2.4
	c1.3-1.3,3.5-1.3,4.8,0c0.6,0.6,1,1.5,1,2.4C59.2,55.7,58.9,56.6,58.2,57.2z M71.4,44c-0.6,0.6-1.5,1-2.4,1s-1.8-0.4-2.4-1
	c-0.6-0.6-1-1.5-1-2.4s0.4-1.8,1-2.4c1.3-1.3,3.5-1.3,4.8,0C72.8,40.5,72.8,42.7,71.4,44z"/>
</svg>
